<?xml version="1.0" encoding="UTF-8" standalone="no"?>
<!-- Created with Inkscape (http://www.inkscape.org/) -->
<svg
   xmlns:dc="http://purl.org/dc/elements/1.1/"
   xmlns:cc="http://creativecommons.org/ns#"
   xmlns:rdf="http://www.w3.org/1999/02/22-rdf-syntax-ns#"
   xmlns:svg="http://www.w3.org/2000/svg"
   xmlns="http://www.w3.org/2000/svg"
   xmlns:xlink="http://www.w3.org/1999/xlink"
   xmlns:sodipodi="http://sodipodi.sourceforge.net/DTD/sodipodi-0.dtd"
   xmlns:inkscape="http://www.inkscape.org/namespaces/inkscape"
   version="1.0"
   width="62"
   height="47.417999"
   viewBox="0 0 595.28 841.89"
   id="svg2"
   sodipodi:version="0.32"
   inkscape:version="0.46"
   sodipodi:docname="DMajor.svg"
   inkscape:output_extension="org.inkscape.output.svg.inkscape">
  <metadata
     id="metadata30">
    <rdf:RDF>
      <cc:Work
         rdf:about="">
        <dc:format>image/svg+xml</dc:format>
        <dc:type
           rdf:resource="http://purl.org/dc/dcmitype/StillImage" />
      </cc:Work>
    </rdf:RDF>
  </metadata>
  <sodipodi:namedview
     inkscape:window-height="1000"
     inkscape:window-width="1400"
     inkscape:pageshadow="2"
     inkscape:pageopacity="0.0"
     guidetolerance="10.0"
     gridtolerance="10.0"
     objecttolerance="10.0"
     borderopacity="1.0"
     bordercolor="#666666"
     pagecolor="#ffffff"
     id="base"
     showgrid="false"
     inkscape:zoom="16.354839"
     inkscape:cx="31"
     inkscape:cy="23.709"
     inkscape:window-x="-8"
     inkscape:window-y="-8"
     inkscape:current-layer="svg2" />
  <defs
     id="defs4">
    <inkscape:perspective
       sodipodi:type="inkscape:persp3d"
       inkscape:vp_x="0 : 23.709 : 1"
       inkscape:vp_y="0 : 1000 : 0"
       inkscape:vp_z="62 : 23.709 : 1"
       inkscape:persp3d-origin="31 : 15.806 : 1"
       id="perspective32" />
  </defs>
  <g
     id="g135"
     style="fill:#000000">
    <use
       xlink:href="#glyph0-0"
       height="841.89001"
       width="595.28003"
       y="24.875366"
       x="28.346758"
       id="use137" />
  </g>
  <path
     id="path199"
     style="fill:none;stroke:#000000;stroke-width:5.82352533;stroke-linecap:round;stroke-linejoin:round;stroke-miterlimit:10;stroke-dasharray:none"
     d="M -228.95291,654.73381 L 824.233,654.73381" />
  <path
     id="path201"
     style="fill:none;stroke:#000000;stroke-width:5.82352533;stroke-linecap:round;stroke-linejoin:round;stroke-miterlimit:10;stroke-dasharray:none"
     d="M -228.95291,547.91793 L 824.233,547.91793" />
  <path
     id="path203"
     style="fill:none;stroke:#000000;stroke-width:5.82352533;stroke-linecap:round;stroke-linejoin:round;stroke-miterlimit:10;stroke-dasharray:none"
     d="M -228.95291,441.10204 L 824.233,441.10204" />
  <path
     id="path205"
     style="fill:none;stroke:#000000;stroke-width:5.82352533;stroke-linecap:round;stroke-linejoin:round;stroke-miterlimit:10;stroke-dasharray:none"
     d="M -228.95291,334.15768 L 824.233,334.15768" />
  <path
     id="path207"
     style="fill:none;stroke:#000000;stroke-width:5.82352533;stroke-linecap:round;stroke-linejoin:round;stroke-miterlimit:10;stroke-dasharray:none"
     d="M -228.95291,227.34179 L 824.233,227.34179" />
  <path
     id="path2724"
     style="fill:#000000;stroke:none"
     d="M 709.08063,442.78837 C 707.40482,443.45866 695.33976,446.47483 691.31807,447.48036 C 688.30191,447.8154 684.61526,447.8154 679.25301,447.8154 C 670.20432,447.8154 667.52319,447.48036 655.12289,444.46398 C 646.40923,442.11809 645.40392,442.11809 643.39307,445.13426 C 642.38754,446.47483 642.38754,446.81008 642.05251,452.50739 C 640.71195,475.96734 638.03082,488.36771 632.33333,506.80043 C 623.28464,533.61181 607.86817,560.42318 586.41917,586.22924 C 583.06777,590.58598 582.06224,591.59152 582.06224,592.59684 C 582.06224,596.95379 585.07861,600.64025 589.77058,601.98082 C 592.45171,602.98635 593.45702,602.98635 629.6522,602.98635 L 666.85291,602.98635 L 666.85291,604.99721 C 666.85291,615.38651 663.83654,625.44077 659.14457,632.8139 C 653.44729,640.85732 646.40923,645.54931 637.36054,646.55484 C 633.00361,646.55484 632.66857,646.88988 631.32801,648.56569 C 629.6522,651.24683 630.65773,654.59825 633.00361,655.26854 C 635.68473,656.60911 643.72811,656.27386 663.83654,653.25769 C 689.97751,649.90626 693.32891,649.90626 719.80512,653.25769 C 739.57831,656.27386 747.62169,656.60911 750.30281,655.26854 C 752.6489,654.59825 753.65422,651.24683 751.97862,648.56569 C 750.63806,646.88988 750.30281,646.55484 745.94609,646.55484 C 732.54047,645.21427 722.48625,634.82476 718.12931,618.73793 C 717.124,614.71622 716.45372,608.34863 716.78875,605.33224 L 716.78875,602.98635 L 733.21075,602.98635 C 747.62169,602.98635 749.2975,602.98635 750.63806,601.98082 C 752.6489,601.31053 753.98946,599.29968 753.98946,596.95379 C 753.98946,593.93741 752.6489,592.2618 750.63806,591.25627 C 749.2975,590.58598 747.62169,590.58598 733.21075,590.58598 L 716.78875,590.58598 L 716.78875,537.63351 C 716.78875,478.98373 716.78875,482.33515 714.10763,480.65934 C 712.43203,479.31877 709.41566,479.65402 708.41035,480.99458 C 707.74006,481.66487 706.06425,484.34601 704.72369,487.36218 C 697.01557,504.45454 692.3236,510.15185 675.23132,521.54669 C 670.20432,525.23336 668.52851,526.23868 668.19348,527.57925 C 667.18795,529.25506 666.85291,530.26038 666.85291,560.08815 L 666.85291,590.58598 L 631.32801,590.58598 L 595.80311,590.58598 C 595.80311,589.9157 623.28464,558.41233 657.13373,519.2008 C 704.72369,463.56719 717.79428,448.15065 717.79428,447.48036 C 717.79428,443.79369 713.10231,441.4478 709.08063,442.78837 z" />
  <path
     id="path2718"
     style="fill:#000000;stroke:none"
     d="M 652.62451,227.88124 C 630.84048,230.22734 613.07792,241.62218 606.04007,256.36844 C 603.69398,261.73071 603.35895,265.08213 603.35895,271.11469 C 603.35895,275.1364 603.35895,276.812 603.69398,278.82286 C 606.71035,286.86627 612.0726,292.22855 620.45101,295.24493 C 624.13766,296.5855 631.51076,296.25025 635.1972,294.90968 C 645.58666,290.88798 651.61919,282.50953 651.61919,272.7903 C 651.61919,269.10384 651.61919,268.76859 650.61366,267.09299 C 649.2731,265.41717 648.60282,264.41185 642.23526,259.71986 C 640.22441,259.04957 638.5486,257.37375 638.21357,256.03319 C 636.87301,254.35758 636.87301,254.02233 636.87301,251.34119 C 636.87301,248.32502 636.87301,247.98977 638.21357,245.64388 C 641.22973,240.61664 650.27863,237.26522 661.33816,237.26522 C 678.43044,237.26522 687.47913,246.6492 689.48997,267.09299 C 690.4955,274.46611 689.82522,296.5855 689.15494,301.61253 C 687.47913,309.99119 686.13856,313.34261 682.78716,317.02907 C 680.10603,319.37517 677.08988,320.38049 672.39791,321.38603 C 671.05735,321.72106 661.33816,321.72106 651.61919,321.72106 C 630.84048,321.72106 630.84048,321.72106 629.83495,324.73745 C 628.49439,326.41305 628.82963,330.09972 630.1702,331.77533 C 631.84579,334.12143 631.84579,334.12143 652.62451,334.12143 C 668.04097,334.12143 672.39791,334.12143 674.40875,335.12675 C 684.12772,337.1376 688.14941,344.1757 689.48997,358.92195 C 689.82522,365.95983 689.82522,385.39808 689.48997,391.76589 C 687.47913,414.55556 680.44128,427.29097 668.71125,430.64239 C 661.67341,432.65324 648.93807,430.30714 642.90554,426.62068 C 636.20273,422.26373 634.52692,414.55556 639.21888,408.85804 C 639.88916,408.523 642.57029,405.84186 645.58666,404.16605 C 652.28947,398.80377 653.96507,396.45788 653.63004,390.76036 C 652.62451,379.36552 645.25141,369.6465 634.52692,365.95983 C 631.51076,364.95451 630.1702,364.95451 625.81326,364.95451 C 621.12129,364.95451 619.78073,364.95451 616.76457,365.95983 C 608.7212,368.97622 602.01839,375.67906 599.00201,383.72248 C 597.9967,387.0739 597.9967,388.07922 597.9967,393.10646 C 597.9967,398.80377 597.9967,400.14434 599.00201,403.16073 C 601.34811,410.53386 604.36426,415.89613 610.06176,421.92869 C 623.13214,434.6641 643.91085,441.36694 667.37069,441.03169 C 691.50081,440.02637 711.27422,432.98828 724.67984,420.25287 C 734.39881,409.86357 739.09078,398.80377 740.0963,383.72248 C 740.43134,372.99793 738.75574,363.61395 734.73406,355.57053 C 731.0474,347.86215 725.35012,342.83513 718.31206,338.47817 C 715.96618,337.47285 713.95534,336.46732 712.94981,335.462 C 709.93365,332.78086 708.59309,328.08887 710.60393,324.4022 C 711.60925,321.38603 712.94981,320.04546 717.30675,317.69935 C 723.67431,314.0129 728.70153,307.64509 731.0474,299.60167 C 732.72321,293.56911 733.05825,288.87712 733.05825,278.82286 C 733.05825,268.09831 732.72321,265.08213 730.04209,258.71432 C 723.33928,242.29246 705.24168,231.56791 679.43575,228.21649 C 672.73294,227.88124 657.31647,227.5462 652.62451,227.88124 z" />
  <path
     id="path2736"
     style="fill:#000000;stroke:none"
     d="M 306.24069,67.815171 C 304.22984,68.82049 302.88928,70.161059 301.88386,72.171912 C 301.21358,73.512481 301.21358,78.204472 301.21358,107.69699 L 301.21358,140.87617 L 284.12141,148.58434 L 267.02924,155.95747 L 266.6941,123.78381 C 266.6941,94.961583 266.02382,91.610161 265.68868,90.269592 C 262.33727,84.237032 253.28847,84.572282 250.60735,90.939876 C 249.93707,92.280445 249.93707,96.972436 249.93707,127.80552 L 249.93707,163.3306 L 239.21257,167.68755 C 232.50976,170.36869 228.15293,172.71458 227.81779,173.38486 C 225.13667,176.066 225.13667,176.40125 225.13667,192.82311 C 225.13667,205.89376 225.13667,207.56937 226.14209,209.24519 C 227.14751,212.26136 230.83406,214.60746 234.18546,213.93718 C 235.52602,213.93718 239.21257,212.26136 242.56398,211.25604 L 249.60193,208.23965 C 249.93707,208.23965 249.93707,222.98591 249.93707,241.75387 L 249.93707,275.60335 L 239.21257,279.96009 C 232.50976,282.97648 228.15293,284.98733 227.81779,285.99265 C 225.13667,288.33875 225.13667,289.00904 225.13667,305.09586 C 225.13667,318.50155 225.13667,320.17715 226.14209,321.85297 C 227.14751,324.86915 230.83406,326.88 234.18546,326.54496 C 235.52602,326.54496 239.21257,324.86915 242.56398,323.52858 L 249.60193,320.5124 C 249.93707,320.5124 249.93707,334.25313 249.93707,350.6752 C 249.93707,376.8163 249.93707,381.17304 250.60735,382.51361 C 253.28847,389.21645 263.00755,389.21645 265.68868,382.51361 C 266.6941,381.17304 266.6941,376.48105 266.6941,346.98853 L 266.6941,312.80403 L 283.78627,305.4309 L 301.21358,298.39302 L 301.21358,330.90171 C 301.21358,359.72394 301.54872,363.07536 301.88386,364.08089 C 305.5704,370.44849 313.94892,370.11345 316.96518,363.74564 C 317.97061,362.40507 317.97061,360.39422 317.97061,326.54496 L 317.97061,291.01989 L 328.6951,286.66293 C 335.39792,283.64676 339.75474,281.63591 340.08988,280.63037 C 342.77101,278.28448 342.77101,277.6142 342.77101,261.52737 C 342.77101,248.12168 342.77101,246.44587 341.76559,244.77026 C 340.42503,241.75387 337.07362,239.74302 333.72221,240.07827 C 332.38165,240.07827 328.6951,241.75387 325.00856,243.09444 L 318.30575,246.11083 C 317.97061,246.11083 317.97061,231.02932 317.97061,212.26136 L 317.97061,178.74714 L 328.6951,174.3904 C 335.39792,171.37401 339.75474,169.36316 340.08988,168.35784 C 342.77101,165.6767 342.77101,165.34145 342.77101,149.25462 C 342.77101,135.84893 342.77101,134.17333 341.76559,132.49751 C 340.42503,129.48134 337.07362,127.47049 333.72221,127.80552 C 332.38165,127.80552 328.6951,129.48134 325.00856,130.82191 L 318.30575,133.83808 C 317.97061,133.83808 317.97061,120.09736 317.97061,104.01053 C 317.97061,75.523334 317.97061,73.512481 316.96518,71.836877 C 315.28948,67.815171 310.26237,65.804317 306.24069,67.815171 z M 301.21358,219.63449 L 301.21358,253.48396 L 284.45655,260.52184 C 275.40775,264.54355 267.69952,267.89497 267.36438,267.89497 C 266.6941,268.23022 266.6941,267.55993 266.6941,234.716 L 266.6941,200.53149 L 283.78627,193.15836 L 301.21358,185.78523 L 301.21358,219.63449 z" />
  <path
     id="path2730"
     style="fill:#000000;stroke:none"
     d="M 423.76971,228.08586 C 421.75887,229.09118 420.41831,230.43175 419.41278,232.44261 C 418.7425,233.78317 418.7425,238.47517 418.7425,267.96768 L 418.7425,301.14687 L 401.65044,308.85503 L 384.5582,316.22816 L 384.22306,284.05451 C 384.22306,255.23228 383.55278,251.88085 383.21764,250.54029 C 379.86623,244.50773 370.81744,244.84297 368.13631,251.21057 C 367.46603,252.55114 367.46603,257.24313 367.46603,288.07621 L 367.46603,323.60129 L 356.74153,327.95824 C 350.03872,330.63938 345.6819,332.98527 345.34675,333.65556 C 342.66563,336.33669 342.66563,336.67194 342.66563,353.0938 C 342.66563,366.16446 342.66563,367.84006 343.67105,369.51588 C 344.67647,372.53205 348.36302,374.87816 351.71443,374.20787 C 353.05499,374.20787 356.74153,372.53205 360.09294,371.52673 L 367.13089,368.51035 C 367.46603,368.51035 367.46603,383.2566 367.46603,402.02457 L 367.46603,435.87404 L 356.74153,440.23078 C 350.03872,443.24717 345.6819,445.25802 345.34675,446.26334 C 342.66563,448.60944 342.66563,449.27973 342.66563,465.36655 C 342.66563,478.77224 342.66563,480.44785 343.67105,482.12367 C 344.67647,485.13984 348.36302,487.15069 351.71443,486.81566 C 353.05499,486.81566 356.74153,485.13984 360.09294,483.79927 L 367.13089,480.7831 C 367.46603,480.7831 367.46603,494.52382 367.46603,510.9459 C 367.46603,537.08699 367.46603,541.44373 368.13631,542.7843 C 370.81744,549.48714 380.53652,549.48714 383.21764,542.7843 C 384.22306,541.44373 384.22306,536.75174 384.22306,507.25922 L 384.22306,473.07472 L 401.31519,465.70159 L 418.7425,458.66371 L 418.7425,491.1724 C 418.7425,519.99463 419.07775,523.34605 419.41278,524.35159 C 423.09943,530.71918 431.47784,530.38414 434.49421,524.01634 C 435.49953,522.67577 435.49953,520.66491 435.49953,486.81566 L 435.49953,451.29058 L 446.22403,446.93363 C 452.92684,443.91745 457.28377,441.9066 457.61881,440.90107 C 460.29993,438.55518 460.29993,437.88489 460.29993,421.79807 C 460.29993,408.39238 460.29993,406.71656 459.29462,405.04096 C 457.95405,402.02457 454.60265,400.01371 451.25124,400.34896 C 449.91068,400.34896 446.22403,402.02457 442.53759,403.36514 L 435.83478,406.38152 C 435.49953,406.38152 435.49953,391.30002 435.49953,372.53205 L 435.49953,339.01783 L 446.22403,334.66109 C 452.92684,331.6447 457.28377,329.63385 457.61881,328.62853 C 460.29993,325.94739 460.29993,325.61214 460.29993,309.52532 C 460.29993,296.11963 460.29993,294.44402 459.29462,292.7682 C 457.95405,289.75203 454.60265,287.74118 451.25124,288.07621 C 449.91068,288.07621 446.22403,289.75203 442.53759,291.0926 L 435.83478,294.10877 C 435.49953,294.10877 435.49953,280.36805 435.49953,264.28122 C 435.49953,235.79403 435.49953,233.78317 434.49421,232.10757 C 432.8184,228.08586 427.7914,226.07501 423.76971,228.08586 z M 418.7425,379.90518 L 418.7425,413.75465 L 401.98547,420.79253 C 392.93678,424.81424 385.22848,428.16566 384.89334,428.16566 C 384.22306,428.50091 384.22306,427.83063 384.22306,394.98669 L 384.22306,360.80218 L 401.31519,353.42905 L 418.7425,346.05592 L 418.7425,379.90518 z" />
  <path
     id="path2742"
     style="fill:#000000;stroke:none"
     d="M -13.753919,15.002548 C -14.75934,15.337583 -17.775606,18.35397 -20.791871,21.370143 C -51.289663,51.868192 -70.057536,90.074405 -74.749504,132.97261 C -75.754926,140.34574 -75.754926,157.77313 -75.419785,169.16797 C -73.744082,212.40121 -66.70613,244.91011 -49.27882,300.20847 L -47.267977,307.5816 L -59.668178,323.66842 C -99.549907,374.27501 -114.96637,397.06468 -128.372,424.54634 C -141.44248,451.69275 -147.81015,476.49328 -148.81557,503.97494 C -150.15613,553.91124 -128.03686,600.83115 -88.155127,630.32366 C -55.646491,654.78894 -16.435043,664.50817 25.79267,658.47561 C 29.479216,658.14036 32.495481,657.80532 32.495481,658.14036 L 32.495481,678.91918 C 32.495481,726.84462 29.479216,746.95315 19.089858,768.06701 C 12.722187,781.13766 5.0139537,790.85668 -4.3699825,797.89477 C -15.094481,805.93818 -25.81898,809.28961 -38.889462,809.28961 C -53.970788,809.28961 -67.041271,805.2679 -79.106331,796.21895 C -83.128018,793.53782 -89.495689,787.17022 -91.841673,783.48355 L -94.187657,780.80241 L -92.511955,781.4727 C -77.765769,786.83497 -58.997897,780.46738 -49.27882,767.06169 C -41.235446,756.33714 -38.889462,743.26648 -43.24629,729.19051 C -48.273398,711.09283 -62.349303,699.02771 -80.111753,698.35743 C -96.533642,698.02239 -113.62581,706.0658 -122.67461,720.14178 C -129.71256,730.86633 -131.38826,743.60173 -127.36657,760.35884 C -122.67461,782.47823 -108.26356,802.25151 -87.819986,813.9816 C -74.414363,822.36005 -58.662756,827.05204 -42.911149,827.72232 C -14.75934,828.72786 10.041062,815.32217 28.138654,788.84582 C 40.203714,771.08339 46.906526,750.30458 48.582229,725.1688 C 50.257932,708.41169 50.257932,701.37381 50.593072,677.24357 L 50.593072,653.11333 L 54.9499,651.43751 C 72.37721,644.39964 87.458536,633.33983 100.19388,617.58826 C 121.97802,590.44163 129.35111,555.2518 120.30231,520.39701 C 112.25894,488.5584 90.809942,461.07673 62.322993,447.00076 C 48.582229,440.29792 35.511746,436.94649 19.424999,435.94117 L 12.387046,435.60593 L 10.711343,428.2328 C 5.3490942,409.80008 -4.3699825,378.29671 -14.089059,347.79866 L -16.435043,341.7661 L -9.0619506,332.04709 C 21.100701,293.17059 37.85773,264.68339 48.582229,235.86116 C 58.301306,209.04979 61.987852,180.89784 58.301306,155.092 C 52.603916,108.50712 26.462951,50.862658 -2.6942796,19.694539 C -7.7213883,14.332264 -10.402513,12.991695 -13.753919,15.002548 z M 12.722187,77.003751 C 13.392468,78.34432 20.43042,92.085259 22.441264,96.77725 C 24.787248,102.47456 26.798091,111.18826 28.138654,117.8911 C 28.808935,125.26423 28.808935,149.05944 28.138654,156.43256 C 23.446685,196.64963 8.3653594,231.83946 -24.143277,277.08376 C -27.159542,281.10547 -30.175807,285.46221 -31.181229,287.13803 L -33.527213,289.81917 L -34.867775,285.12718 C -42.576008,260.99694 -49.949101,230.83414 -52.630226,213.40674 C -53.970788,204.69304 -53.970788,188.60622 -52.965366,179.89252 C -49.27882,151.74057 -39.559743,128.28062 -21.797293,106.49627 C -17.775606,100.79896 -7.3862477,90.74469 -1.6888579,86.387734 C 2.332829,83.036311 11.381625,76.668716 11.716765,76.668716 C 11.716765,76.668716 12.387046,77.003751 12.722187,77.003751 z M -25.483839,373.26947 C -15.429622,403.43227 -6.0456854,436.27621 -6.380826,436.94649 C -6.380826,436.94649 -8.72681,437.61678 -10.402513,437.61678 C -15.764762,438.95735 -25.483839,441.97373 -30.510948,444.31962 C -39.894884,449.01161 -47.267977,454.03885 -54.305929,461.07673 C -76.760347,483.86641 -84.803721,517.38063 -74.749504,547.87868 C -71.062958,560.61408 -63.689865,572.34395 -53.970788,582.06318 C -46.262555,589.77135 -38.554321,595.46887 -27.829823,600.4959 C -22.802714,602.842 -21.797293,602.842 -19.451309,602.842 C -16.770184,602.842 -16.435043,602.842 -14.75934,601.83647 C -12.078216,600.16086 -10.402513,596.47419 -10.402513,593.45802 C -10.737654,589.77135 -12.078216,588.43078 -17.775606,585.07936 C -44.251711,569.99806 -56.987053,545.19754 -49.613961,520.39701 C -44.586852,502.29933 -28.835245,488.5584 -7.0511071,483.86641 C -2.6942796,482.52584 5.3490942,481.52052 6.0193754,482.1908 C 6.0193754,482.1908 7.6950783,488.22336 10.041062,499.95323 C 18.419577,533.46745 23.781826,564.63579 27.133232,594.46334 C 29.814356,613.2313 31.8252,638.36708 31.154919,639.37239 C 30.484638,639.70764 22.106123,641.04821 14.062749,641.38325 C -12.413356,643.05907 -35.202916,639.03736 -57.657334,627.30727 C -70.727817,620.93968 -80.782034,613.2313 -90.836252,603.84732 C -106.58786,587.76049 -115.63665,569.66281 -117.6475,549.55428 C -118.31778,544.192 -117.98264,531.12157 -117.31236,523.07815 C -112.62039,485.20697 -97.203923,449.6819 -65.030427,405.10809 C -55.981632,392.37269 -30.846088,359.52875 -30.175807,359.52875 L -25.483839,373.26947 z M 32.495481,484.20165 C 65.339258,491.57478 89.469379,518.05091 95.50191,552.23542 C 96.172191,555.2518 96.172191,558.60323 96.172191,564.97082 C 96.172191,572.6792 96.172191,574.3548 95.166769,579.0468 C 94.161347,582.39822 93.491066,586.75517 92.485645,588.43078 C 87.458536,603.51228 76.398897,618.25854 63.663555,626.97224 C 58.971587,630.32366 49.922791,634.6804 49.587651,634.34537 C 49.587651,633.67508 48.917369,631.32898 48.917369,628.64784 C 47.576807,611.89073 43.890261,580.05233 40.203714,557.26266 C 36.517168,535.81356 29.479216,499.6182 25.457529,484.53669 L 24.787248,482.52584 L 25.79267,482.86109 C 26.798091,482.86109 29.479216,483.19612 32.495481,484.20165 z" />
  <g
     id="g273"
     style="fill:#000000">
    <use
       xlink:href="#glyph0-0"
       height="841.89001"
       width="595.28003"
       y="809.76062"
       x="222.29372"
       id="use275" />
  </g>
  <g
     id="g297"
     style="fill:#000000">
    <use
       xlink:href="#glyph0-0"
       height="841.89001"
       width="595.28003"
       y="809.76062"
       x="253.07831"
       id="use299" />
  </g>
  <g
     id="g341"
     style="fill:#000000">
    <use
       xlink:href="#glyph0-0"
       height="841.89001"
       width="595.28003"
       y="809.76062"
       x="315.66843"
       id="use343" />
  </g>
  <g
     id="g365"
     style="fill:#000000">
    <use
       xlink:href="#glyph0-0"
       height="841.89001"
       width="595.28003"
       y="809.76062"
       x="343.22238"
       id="use367" />
  </g>
  <g
     id="g381"
     style="fill:#000000">
    <use
       xlink:href="#glyph0-0"
       height="841.89001"
       width="595.28003"
       y="809.76062"
       x="365.33298"
       id="use383" />
  </g>
</svg>
