<?xml version="1.0" encoding="iso-8859-1"?>
<!-- Generator: Adobe Illustrator 17.1.0, SVG Export Plug-In . SVG Version: 6.00 Build 0)  -->
<!DOCTYPE svg PUBLIC "-//W3C//DTD SVG 1.1//EN" "http://www.w3.org/Graphics/SVG/1.1/DTD/svg11.dtd">
<svg version="1.1" id="Capa_1" xmlns="http://www.w3.org/2000/svg" xmlns:xlink="http://www.w3.org/1999/xlink" x="0px" y="0px"
	 viewBox="0 0 294 294" style="enable-background:new 0 0 294 294;" xml:space="preserve">
<path d="M294,15c0-8.284-6.716-15-15-15H15C6.716,0,0,6.716,0,15v264c0,8.284,6.716,15,15,15h264c8.284,0,15-6.716,15-15V15z
	 M40,262c0,4.143-3.357,7.5-7.5,7.5S25,266.143,25,262v-17c0-4.143,3.357-7.5,7.5-7.5s7.5,3.357,7.5,7.5V262z M86,262
	c0,4.143-3.357,7.5-7.5,7.5S71,266.143,71,262v-17c0-4.143,3.357-7.5,7.5-7.5s7.5,3.357,7.5,7.5V262z M89,206.5
	c0,4.142-3.358,7.5-7.5,7.5h-50c-4.142,0-7.5-3.358-7.5-7.5v-33c0-4.142,3.358-7.5,7.5-7.5h50c4.142,0,7.5,3.358,7.5,7.5V206.5z
	 M89,135.5c0,4.142-3.358,7.5-7.5,7.5h-50c-4.142,0-7.5-3.358-7.5-7.5v-33c0-4.142,3.358-7.5,7.5-7.5h50c4.142,0,7.5,3.358,7.5,7.5
	V135.5z M89,64.5c0,4.142-3.358,7.5-7.5,7.5h-50c-4.142,0-7.5-3.358-7.5-7.5v-33c0-4.142,3.358-7.5,7.5-7.5h50
	c4.142,0,7.5,3.358,7.5,7.5V64.5z M132,262c0,4.143-3.357,7.5-7.5,7.5s-7.5-3.357-7.5-7.5v-17c0-4.143,3.357-7.5,7.5-7.5
	s7.5,3.357,7.5,7.5V262z M179,262c0,4.143-3.357,7.5-7.5,7.5s-7.5-3.357-7.5-7.5v-17c0-4.143,3.357-7.5,7.5-7.5s7.5,3.357,7.5,7.5
	V262z M180,206.5c0,4.142-3.358,7.5-7.5,7.5h-50c-4.142,0-7.5-3.358-7.5-7.5v-33c0-4.142,3.358-7.5,7.5-7.5h50
	c4.142,0,7.5,3.358,7.5,7.5V206.5z M180,135.5c0,4.142-3.358,7.5-7.5,7.5h-50c-4.142,0-7.5-3.358-7.5-7.5v-33
	c0-4.142,3.358-7.5,7.5-7.5h50c4.142,0,7.5,3.358,7.5,7.5V135.5z M180,64.5c0,4.142-3.358,7.5-7.5,7.5h-50
	c-4.142,0-7.5-3.358-7.5-7.5v-33c0-4.142,3.358-7.5,7.5-7.5h50c4.142,0,7.5,3.358,7.5,7.5V64.5z M225,262c0,4.143-3.357,7.5-7.5,7.5
	s-7.5-3.357-7.5-7.5v-17c0-4.143,3.357-7.5,7.5-7.5s7.5,3.357,7.5,7.5V262z M271,262c0,4.143-3.357,7.5-7.5,7.5s-7.5-3.357-7.5-7.5
	v-17c0-4.143,3.357-7.5,7.5-7.5s7.5,3.357,7.5,7.5V262z M271,206.5c0,4.142-3.358,7.5-7.5,7.5h-50c-4.142,0-7.5-3.358-7.5-7.5v-33
	c0-4.142,3.358-7.5,7.5-7.5h50c4.142,0,7.5,3.358,7.5,7.5V206.5z M271,135.5c0,4.142-3.358,7.5-7.5,7.5h-50
	c-4.142,0-7.5-3.358-7.5-7.5v-33c0-4.142,3.358-7.5,7.5-7.5h50c4.142,0,7.5,3.358,7.5,7.5V135.5z M271,64.5
	c0,4.142-3.358,7.5-7.5,7.5h-50c-4.142,0-7.5-3.358-7.5-7.5v-33c0-4.142,3.358-7.5,7.5-7.5h50c4.142,0,7.5,3.358,7.5,7.5V64.5z"/>
<g>
</g>
<g>
</g>
<g>
</g>
<g>
</g>
<g>
</g>
<g>
</g>
<g>
</g>
<g>
</g>
<g>
</g>
<g>
</g>
<g>
</g>
<g>
</g>
<g>
</g>
<g>
</g>
<g>
</g>
</svg>
